<svg xmlns="http://www.w3.org/2000/svg" width="82" height="57" viewBox="0 0 82 57" fill="none">
    <path d="M0.0922852 0.222137H81.0685V39.4348H0.0922852V0.222137Z" fill="black"/>
    <path d="M0.0922852 0.222137H26.0361L44.1182 39.4348H0.0922852V0.222137Z" fill="#EB1A16"/>
    <path d="M0.0922852 43.4361H11.0988V45.4367H2.05773V54.2396H11.0988V56.2402H0.0922852V43.4361Z" fill="white"/>
    <path d="M13.8506 43.4361H24.8571V56.2402H22.8916V52.2389H15.816V50.2383H22.8916V45.4367H15.816V56.2402H13.8506V43.4361Z" fill="white"/>
    <path d="M27.6084 43.4361H41.7596V56.2402H39.7941V45.4367H35.6667V56.2402H33.7013V45.4367H29.5738V56.2402H27.6084V43.4361Z" fill="white"/>
    <path d="M44.5112 43.4361H53.9454V45.4367H46.4767V48.6378H52.7661V50.6384H46.4767V56.2402H44.5112V43.4361Z" fill="white"/>
    <path d="M56.6968 43.4361H67.8605V56.2402H56.6968V43.4361Z" fill="#EB1A16"/>
    <path d="M70.8481 43.4361H81.0684V50.6384H78.7099L81.0684 55.44V56.2402H79.4961L76.7445 50.6384H72.8136V48.6378H79.103V45.4367H72.8136V56.2402H70.8481V43.4361Z" fill="white"/>
    <path d="M0.0922852 23.4296L20.5329 33.833L29.1808 21.8291L15.0296 14.6268L20.5329 6.62421L74.7791 14.2267L60.6279 22.6294L65.345 25.0302L59.0555 32.2325L53.5523 29.0314L48.8352 33.0327L38.6149 26.6307L29.1808 39.4348H17.3882L0.0922852 29.8317V23.4296Z" fill="white"/>
</svg>